<?xml version="1.0" encoding="UTF-8"?><svg id="a" xmlns="http://www.w3.org/2000/svg" width="1080" height="1080" xmlns:xlink="http://www.w3.org/1999/xlink" viewBox="0 0 1080 1080"><defs><radialGradient id="b" cx="538.63" cy="625.21" fx="538.63" fy="625.21" r="623.74" gradientTransform="translate(0 1057.47) scale(1 -.96)" gradientUnits="userSpaceOnUse"><stop offset="0" stop-color="#8f7e7e"/><stop offset=".26" stop-color="#887979"/><stop offset=".66" stop-color="#736b6b"/><stop offset="1" stop-color="#5c5b5b"/></radialGradient><radialGradient id="c" cx="935.91" cy="-2622.26" fx="935.91" fy="-2622.26" r="31.87" gradientTransform="translate(-11706.25 -33023.96) scale(13.11 -12.77)" gradientUnits="userSpaceOnUse"><stop offset="0" stop-color="#fffad1"/><stop offset=".55" stop-color="#fffded" stop-opacity=".45"/><stop offset="1" stop-color="#fff" stop-opacity="0"/></radialGradient><linearGradient id="d" x1="942.3" y1="503.71" x2="642.96" y2="1030.38" gradientTransform="translate(-46.28 1049.01) rotate(4.08) scale(1 -1)" gradientUnits="userSpaceOnUse"><stop offset="0" stop-color="#050505"/><stop offset=".1" stop-color="#1e1e1e"/><stop offset=".31" stop-color="#4a4a4a"/><stop offset=".5" stop-color="#6c6c6c"/><stop offset=".69" stop-color="#858585"/><stop offset=".86" stop-color="#949494"/><stop offset="1" stop-color="#999"/></linearGradient><linearGradient id="e" x1="751.42" y1="213.11" x2="847.69" y2="535.81" gradientTransform="translate(-46.28 1049.01) rotate(4.08) scale(1 -1)" gradientUnits="userSpaceOnUse"><stop offset="0" stop-color="#050505"/><stop offset=".03" stop-color="#0a0a0a"/><stop offset=".36" stop-color="#474747"/><stop offset=".65" stop-color="#747474"/><stop offset=".87" stop-color="#8f8f8f"/><stop offset="1" stop-color="#999"/></linearGradient><linearGradient id="f" x1="309.01" y1="563.7" x2="808.61" y2="563.7" gradientTransform="translate(0 1082) scale(1 -1)" gradientUnits="userSpaceOnUse"><stop offset="0" stop-color="#da9b00"/><stop offset=".05" stop-color="#da9b00"/><stop offset=".3" stop-color="#dccf4b"/><stop offset=".4" stop-color="#dcd452"/><stop offset=".62" stop-color="#dcd4c4"/><stop offset=".85" stop-color="#dcd452"/><stop offset=".95" stop-color="#da9b00"/><stop offset="1" stop-color="#da9b00"/></linearGradient><linearGradient id="g" x1="362.71" y1="286.52" x2="145.16" y2="669.28" gradientTransform="translate(-46.28 1049.01) rotate(4.08) scale(1 -1)" gradientUnits="userSpaceOnUse"><stop offset="0" stop-color="#050505"/><stop offset=".1" stop-color="#1e1e1e"/><stop offset=".31" stop-color="#4a4a4a"/><stop offset=".5" stop-color="#6c6c6c"/><stop offset=".69" stop-color="#858585"/><stop offset=".86" stop-color="#949494"/><stop offset="1" stop-color="#999"/></linearGradient><linearGradient id="h" x1="400.41" y1="733.86" x2="313.69" y2="885.89" gradientTransform="translate(-46.28 1049.01) rotate(4.08) scale(1 -1)" gradientUnits="userSpaceOnUse"><stop offset="0" stop-color="#c7c7c7"/><stop offset=".13" stop-color="#d2d2d2"/><stop offset=".45" stop-color="#ebebeb"/><stop offset=".75" stop-color="#fafafa"/><stop offset="1" stop-color="#fff"/></linearGradient><linearGradient id="i" x1="400.38" y1="733.69" x2="313.74" y2="886.12" gradientTransform="translate(-46.28 1049.01) rotate(4.08) scale(1 -1)" gradientUnits="userSpaceOnUse"><stop offset="0" stop-color="#050505"/><stop offset=".1" stop-color="#1e1e1e"/><stop offset=".31" stop-color="#4a4a4a"/><stop offset=".5" stop-color="#6c6c6c"/><stop offset=".69" stop-color="#858585"/><stop offset=".86" stop-color="#949494"/><stop offset="1" stop-color="#999"/></linearGradient></defs><rect width="1080" height="1080" style="fill:url(#b);"/><ellipse cx="558.75" cy="476.31" rx="430.31" ry="427.02" style="fill:url(#c); isolation:isolate; opacity:.5;"/><path d="M790.24,654.61c1.04-34.25-8.51-62.32-24.09-88.66-66.93-113.08-138.61-223.11-211.98-332.93,3.09,1.67,6.41,3.03,9.24,5.06,17.61,12.57,34.92,25.55,52.68,37.9,24.31,16.9,49.01,33.24,73.39,50.05,18.56,12.8,37.37,25.32,55.17,39.12,22.89,17.74,39.81,40.19,52.8,66.48,11.82,23.91,17.9,48.7,21.62,75.09,9.04,96.33-25.5,142.8-28.83,147.89Z" style="fill:#fff; opacity:.15;"/><path d="M289.72,425.54c-1.04,34.25,8.51,62.32,24.09,88.66,66.93,113.08,138.61,223.11,211.98,332.93-3.09-1.67-6.41-3.03-9.24-5.06-17.61-12.57-34.92-25.55-52.68-37.9-24.31-16.9-49.01-33.24-73.39-50.05-18.56-12.8-37.37-25.32-55.18-39.12-22.89-17.74-39.81-40.19-52.8-66.48-11.82-23.91-17.9-48.7-21.62-75.09-8.87-92.11,25.51-142.81,28.84-147.89Z" style="fill:#fff; opacity:.15;"/><path d="M524.31,240.18c-56.61,93.48-112.82,186.3-170.37,281.35-10.46-18.98-21.65-35.53-27.34-55.1-8.06-27.72-7.36-55.05,3.33-81.95,5.47-13.76,13.99-25.25,26.25-33.82,54.42-38.01,108.81-76.05,163.23-114.05,1.64-1.15,3.49-2,6.54-3.73-.57,3.09-.9,4.87-1.64,7.3Z" style="fill:#fff; opacity:.15;"/><path d="M745.84,706.36c-10.13,13.82-22.3,23.98-36.02,33-22.18,14.57-43.29,30.77-65.14,45.88-29.84,20.63-59.95,40.87-91.45,59.75,57.22-94.44,114.45-188.89,171.8-283.54,31.65,42.2,45.92,91.24,20.81,144.91Z" style="fill:#fff; opacity:.15;"/><path d="M886.4,698.65c1.44-47.41-11.78-86.27-33.35-122.73-92.65-156.54-191.87-308.85-293.44-460.87,4.28,2.31,8.87,4.19,12.8,7,24.37,17.4,48.34,35.37,72.93,52.46,33.65,23.4,67.85,46.01,101.6,69.29,25.69,17.72,51.73,35.05,76.38,54.15,31.69,24.56,55.1,55.63,73.09,92.02,16.36,33.11,24.77,67.42,29.92,103.95,12.5,133.36-35.32,197.7-39.93,204.73Z" style="fill:#2e2e2e; opacity:.3;"/><path d="M193.53,381.55c-1.44,47.41,11.78,86.27,33.35,122.73,92.65,156.54,191.87,308.85,293.44,460.87-4.28-2.31-8.87-4.19-12.8-7-24.37-17.4-48.34-35.37-72.93-52.46-33.65-23.4-67.85-46.01-101.6-69.29-25.69-17.72-51.73-35.05-76.38-54.15-31.69-24.56-55.1-55.63-73.09-92.02-16.36-33.11-24.77-67.42-29.92-103.95-12.27-127.51,35.33-197.69,39.93-204.73Z" style="fill:#2e2e2e; opacity:.3;"/><path d="M518.28,124.96c-78.37,129.4-156.17,257.9-235.84,389.47-14.48-26.27-29.97-49.18-37.85-76.28-11.16-38.38-10.19-76.21,4.61-113.44,7.57-19.04,19.37-34.96,36.34-46.82,75.33-52.62,150.63-105.28,225.97-157.89,2.27-1.59,4.83-2.77,9.05-5.17-.8,4.3-1.26,6.76-2.28,10.13Z" style="fill:#2e2e2e; opacity:.3;"/><path d="M824.94,770.29c-14.02,19.13-30.86,33.2-49.86,45.68-30.71,20.17-59.93,42.6-90.17,63.51-41.31,28.56-82.98,56.58-126.59,82.71,79.22-130.74,158.43-261.48,237.82-392.5,43.81,58.42,63.56,126.3,28.8,200.6Z" style="fill:#2e2e2e; opacity:.3;"/><path d="M879.27,704.02c.4-253.11-158.56-497.57-334.31-640.85,78.6,18.85,222.4,115.47,292.23,180.98,62.43,58.57,127.05,150.73,129.75,236.29,4.31,136.01-82.39,220.76-87.67,223.58Z" style="fill:url(#d); stroke:#292929; stroke-miterlimit:10; stroke-width:3px;"/><path d="M849.04,668.87c-30.48-219.77-143.81-422.45-317.26-560.81,4.82-12.85,8.35-32.04,13.17-44.89,200.3,161.47,331.39,405.83,334.32,640.85-4.37-3.52-21.32-22.74-30.23-35.15Z" style="fill:#292929; stroke:#292929; stroke-miterlimit:10; stroke-width:3px;"/><path d="M884.94,337.85c1.97,1.7,3.91,3.45,5.85,5.21l5.53,5.57c1.77,1.92,3.51,3.88,5.27,5.84l4.99,6.08c6.48,8.26,12.33,17.01,17.65,26.08,10.59,18.17,19.16,37.62,24.54,58.21,.33,1.29,.7,2.56,.98,3.87l.84,3.91c.27,1.31,.58,2.6,.81,3.92l.64,3.96c.19,1.32,.44,2.64,.59,3.97l.42,4c.33,2.66,.45,5.34,.56,8.02,.41,10.72-.43,21.49-2.59,31.9-2.11,10.43-5.3,20.52-9.08,30.27-1.9,4.88-3.94,9.69-6.09,14.44l-3.29,7.09c-1.15,2.34-2.27,4.69-3.46,7.01,5.42-20.12,11.62-39.97,14.16-60.09,1.32-10.04,1.62-20.11,.88-30.11l-.3-3.75c-.07-1.25-.29-2.49-.43-3.73l-.47-3.73c-.17-1.24-.43-2.47-.64-3.71l-.64-3.71c-.23-1.23-.53-2.46-.8-3.69l-.82-3.69c-.27-1.23-.64-2.44-.95-3.67-5.1-19.57-12.73-38.64-21.76-57-4.52-9.19-9.42-18.21-14.76-27-5.34-8.77-11.18-17.28-17.63-25.47Z" style="fill:#fff; opacity:.5;"/><path d="M843.38,770.42c-14.85,56.89-208.41,195-235.74,200.69,48.84-66.31,95.01-132.77,130.93-206.88s60.98-154.42,64.71-236.69c1.23,4.32,60.85,163.35,40.1,242.88Z" style="fill:url(#e); stroke:#292929; stroke-dasharray:0 0 0 0 0 0 0 0 0 0 0 0; stroke-miterlimit:10; stroke-width:3px;"/><path d="M803.28,527.53c-7.9-4.7-30.39-4.64-45.44-5.45-8.57,120.29-50.14,228.82-152.74,373.47-1.01,1.42-4.4,31.15,2.54,75.56,51.07-66,96.95-136.33,134.23-210.98s59.68-160.32,61.41-232.6Z" style="fill:#292929; stroke:#292929; stroke-dasharray:0 0 0 0 0 0 0 0 0 0 0 0; stroke-miterlimit:10; stroke-width:3px;"/><path d="M819.43,661.38c6.43,16.18,10.6,33.26,13.07,50.58,1.23,8.67,1.99,17.41,2.32,26.17,.19,4.38,.19,8.77,.16,13.15,0,2.19-.12,4.38-.18,6.58l-.03,.82-.06,.92c-.03,.62-.09,1.24-.16,1.86-.13,1.23-.34,2.46-.6,3.67-1.06,4.85-3.07,9.47-5.85,13.54-.7,1.01-1.44,2-2.23,2.94-.4,.47-.79,.94-1.21,1.39-.42,.45-.85,.92-1.21,1.28-1.54,1.55-3.04,3.13-4.61,4.64-6.22,6.11-12.62,12.04-19.29,17.66-13.3,11.26-27.4,21.58-42.49,30.26,12.58-12.02,25.08-23.83,37.15-36.04,6.04-6.09,11.99-12.26,17.83-18.51l4.37-4.7c.39-.41,.68-.75,.99-1.1,.32-.34,.6-.72,.89-1.08,.58-.73,1.12-1.49,1.62-2.26,2.06-3.09,3.51-6.55,4.27-10.15,.2-.9,.36-1.8,.47-2.71,.06-.45,.11-.91,.13-1.37l.05-.7,.03-.8c.08-2.12,.19-4.25,.25-6.37,.16-4.25,.21-8.51,.23-12.76,.03-8.51-.2-17.04-.66-25.57-.88-17.06-2.84-34.11-5.25-51.34Z" style="fill:#fff; opacity:.5;"/><path d="M801.97,525.94l-6.53-1.87,4.52-5.06,4.53-5.06-6.53-1.87-6.53-1.87,4.52-5.07,4.53-5.06-6.53-1.87-6.53-1.87,4.52-5.06,4.53-5.07-6.53-1.87-6.53-1.87,4.52-5.07,4.53-5.07-6.53-1.87-6.53-1.87,4.52-5.06,4.53-5.06-6.53-1.87-6.53-1.87,4.52-5.07,4.53-5.06-6.53-1.87-6.53-1.87,4.52-5.06,4.53-5.07-6.53-1.87-6.53-1.87,4.52-5.07,4.53-5.06-6.53-1.87-6.53-1.87,4.52-5.06,4.53-5.06-6.53-1.87-6.53-1.87,4.52-5.06,4.53-5.06-6.53-1.87-6.53-1.87,4.52-5.07,4.53-5.07-6.53-1.87h-.01c-17.31,1.79-34.49-10.49-40.06-29.74l-388.93,112.49c5.05,17.47-1.04,35.22-13.87,44.13l-1.46,1.63-4.52,5.07,6.53,1.87,6.53,1.87-4.52,5.07-4.52,5.07,6.53,1.87,6.53,1.87-4.52,5.07-4.52,5.07,6.53,1.87,6.53,1.87-4.52,5.06-4.52,5.07,6.53,1.87,6.53,1.87-4.52,5.07-4.52,5.07,6.53,1.87,6.53,1.87-4.52,5.06-4.52,5.07,6.53,1.87,6.53,1.87-4.52,5.07-4.52,5.07,6.53,1.87,6.53,1.87-4.52,5.06-4.52,5.07,6.53,1.87,6.53,1.87-4.52,5.07-4.52,5.06,6.53,1.87,6.53,1.87-4.52,5.07-4.52,5.07,6.53,1.87,6.53,1.87-4.52,5.07-4.52,5.06,6.53,1.87,6.53,1.87-4.52,5.07-4.52,5.07,6.53,1.87,6.53,1.87-.62,.7c12.91,3.26,24.19,13.99,28.5,28.9h0l391.93-113.36h0c-5.55-19.18,2.35-38.66,17.83-46.45l.15-.17,4.53-5.07-6.64-1.95Zm-423.14,79.25c-.71,2.53-1.85,4.56-3.25,6.48-2.26,3.1-4.3,6.42-6.49,9.59-2.99,4.33-6.03,8.61-9.32,12.74,3.27-16.82,6.55-33.63,9.83-50.49,6.04,5.34,10.11,12.4,9.23,21.68Zm3.5-9.71c-1.4-5.35-3.91-9.34-7.14-12.83-13.86-14.99-28.2-29.33-42.76-43.58,.48,.14,.98,.23,1.44,.43,2.87,1.28,5.73,2.64,8.61,3.88,3.95,1.7,7.92,3.29,11.88,4.97,3.01,1.28,6.04,2.51,9,3.97,3.8,1.88,7.03,4.72,9.91,8.3,2.62,3.26,4.53,6.87,6.21,10.82,5.51,14.61,3.06,23.12,2.85,24.04Zm362.48-150.23c.1-2.34,.7-4.45,1.93-6.24,5.44-7.96,10.87-15.92,16.31-23.88,.16-.24,.37-.44,.69-.83,.06,.5,.1,.79,.11,1.2-3.24,16.64-6.45,33.17-9.74,50.09-2.22-2.55-4.43-4.69-6.06-7.51-2.31-3.99-3.44-8.25-3.24-12.83Zm45.01,63.87c-2.87-1.28-5.73-2.64-8.61-3.88-3.95-1.7-7.92-3.29-11.88-4.97-3.01-1.28-6.04-2.51-9-3.97-3.8-1.88-7.03-4.72-9.91-8.3-2.62-3.26-4.53-6.87-6.21-10.82-5.3-13.95-3.06-23.11-2.85-24.03,1.4,5.35,3.91,9.34,7.14,12.83,13.86,14.99,28.2,29.33,42.76,43.58-.48-.15-.97-.24-1.44-.44Z" style="fill:url(#f);"/><path d="M757.23,543.31c3.5,12.11-2.37,24.45-13.11,27.56l-312.04,90.25c-10.75,3.11-22.3-4.19-25.8-16.3l-45.78-158.27c-3.5-12.11,2.37-24.45,13.11-27.56l312.04-90.25c10.75-3.11,22.3,4.19,25.8,16.3l45.78,158.27Z" style="fill:none; stroke:#41281b; stroke-miterlimit:10; stroke-width:2.93px;"/><path d="M470.87,616.38l-9.12,2.64-4.14-8.47-11.1,3.21,1.02,9.38-8.3,2.4-5.02-51.85,13.23-3.83,23.43,46.52Zm-25.14-9.63l8.71-2.52-11.47-23.64-.16,.05,2.92,26.11Z" style="fill:#41281b;"/><path d="M460.84,565.98l14.3-4.14c9.04-2.62,14.72,.39,17,8.26l7.2,24.88c2.28,7.87-.92,13.44-9.96,16.05l-14.3,4.14-14.24-49.19Zm11.07,4.42l10.16,35.13,5.1-1.47c2.88-.83,4.24-2.6,3.22-6.11l-7.4-25.58c-1.02-3.51-3.11-4.28-5.99-3.45l-5.09,1.48Z" style="fill:#41281b;"/><path d="M523.54,585.69l.16-.05-4.02-36.68,12.58-3.64,14.23,49.19-8.55,2.47-10.2-35.27-.16,.05,4.12,37.03-8.55,2.47-16.64-32.88-.16,.05,10.06,34.78-7.89,2.28-14.23-49.19,12.58-3.64,16.67,33.03Z" style="fill:#41281b;"/><path d="M538.84,543.42l9.04-2.62,14.22,49.2-9.04,2.62-14.22-49.2Z" style="fill:#41281b;"/><path d="M551.82,539.67l27.95-8.08,2.03,7.03-9.45,2.73,12.2,42.16-9.04,2.62-12.2-42.16-9.45,2.73-2.04-7.03Z" style="fill:#41281b;"/><path d="M599.12,538.78c-2.28-7.87,1.27-13.77,10.15-16.34s15.03,.53,17.3,8.4l7.4,25.58c2.28,7.87-1.27,13.77-10.15,16.34s-15.03-.53-17.3-8.4l-7.4-25.58Zm16.59,23.45c1.02,3.51,3.21,4.33,6.09,3.49,2.88-.83,4.3-2.69,3.28-6.2l-7.68-26.56c-1.02-3.51-3.21-4.33-6.09-3.49-2.88,.83-4.3,2.69-3.28,6.2l7.68,26.56Z" style="fill:#41281b;"/><path d="M641.14,528.53l-.16,.05,10.3,35.63-8.14,2.35-14.23-49.19,11.34-3.28,17.64,26.8,.16-.05-8.52-29.44,8.05-2.33,14.23,49.19-9.29,2.69-21.38-32.42Z" style="fill:#41281b;"/><path d="M679.13,525.31l12.41-3.59,2.03,7.03-12.41,3.59,4.17,14.4,15.62-4.52,2.03,7.03-24.66,7.13-14.23-49.19,24.66-7.13,2.03,7.03-15.62,4.52,3.97,13.7Z" style="fill:#41281b;"/><path d="M637.11,529.49c-2.69-10.34-7.67-18-14.13-24.68-27.71-28.68-56.43-56.08-85.58-83.28,.97,.26,1.98,.41,2.91,.8,5.8,2.4,11.56,4.95,17.38,7.27,7.97,3.18,16,6.16,23.98,9.31,6.08,2.4,12.2,4.69,18.16,7.44,7.66,3.54,14.14,8.95,19.89,15.82,5.24,6.25,9.01,13.2,12.29,20.81,10.77,28.14,5.55,44.73,5.1,46.51Z" style="fill:#2e2e2e; opacity:.3;"/><path d="M483.29,499.64c2.69,10.34,7.67,18,14.13,24.68,27.71,28.68,56.43,56.08,85.58,83.28-.97-.26-1.98-.41-2.91-.8-5.8-2.4-11.56-4.95-17.38-7.27-7.97-3.18-16-6.16-23.98-9.31-6.08-2.4-12.2-4.69-18.16-7.44-7.66-3.54-14.14-8.95-19.89-15.82-5.24-6.25-9.01-13.2-12.29-20.81-10.36-26.88-5.55-44.73-5.1-46.51Z" style="fill:#2e2e2e; opacity:.3;"/><path d="M530.03,425.98c-7.06,32.38-14.06,64.52-21.23,97.44-4.44-4.87-8.87-8.96-12.09-14.38-4.56-7.68-6.74-15.92-6.21-24.8,.27-4.54,1.56-8.65,4.1-12.16,11.27-15.59,22.54-31.2,33.81-46.79,.34-.47,.76-.87,1.43-1.62,.11,.96,.18,1.52,.19,2.31Z" style="fill:#2e2e2e; opacity:.3;"/><path d="M629.71,548.42c-1.51,4.92-3.89,8.91-6.78,12.67-4.68,6.08-8.92,12.57-13.46,18.78-6.2,8.49-12.51,16.88-19.3,24.97,7.14-32.71,14.27-65.42,21.43-98.21,12.11,10.2,20.18,23.78,18.11,41.79Z" style="fill:#2e2e2e; opacity:.3;"/><path d="M421.8,504.46l3.14,8.57-.63,.18c-.86-1.5-1.8-2.74-2.81-3.72-1.02-.98-2.06-1.66-3.14-2.03-1.08-.38-2.11-.42-3.1-.14-.77,.22-1.39,.61-1.85,1.16s-.73,1.2-.81,1.95c-.08,.72,.09,1.79,.51,3.22l5.43,18.77c.4,1.4,.78,2.4,1.12,3,.35,.61,.81,1.09,1.4,1.44,1.05,.63,2.38,.85,3.98,.66l.21,.73-13.85,4.01-.21-.73c1.62-.78,2.68-1.78,3.18-3.01,.22-.56,.3-1.18,.24-1.88s-.27-1.66-.63-2.9l-5.43-18.77c-.45-1.55-.95-2.63-1.51-3.23-.44-.5-.99-.84-1.64-1.02-.65-.18-1.33-.16-2.05,.05-1.48,.43-2.63,1.52-3.45,3.28s-1.18,3.94-1.08,6.54l-.61,.18-1.92-8.92,25.51-7.39Zm-24.61,8.06l.72,3.54c.28-1.15,.55-2.01,.81-2.58s.65-1.15,1.16-1.74l-2.69,.78Zm17.41,27.51l5.76-1.67-.96-.46c-.59-.29-.98-.52-1.16-.71s-.34-.51-.48-.98l-.22-.78c-.04-.13-.06-.21-.08-.26-.02-.04-.04-.09-.05-.14l-6.36-21.99s-.02-.1-.03-.14c-.01-.05-.03-.14-.06-.26l-.22-.78c-.14-.47-.17-.86-.1-1.16s.26-.68,.58-1.15l.83-1.31-6.05,1.75,1.21,.72c.43,.25,.74,.5,.94,.76s.36,.59,.48,1l.22,.78c.05,.14,.1,.27,.14,.39l6.36,21.99c.04,.13,.07,.26,.1,.41l.22,.78c.14,.47,.18,.84,.12,1.11-.06,.27-.25,.67-.58,1.19l-.61,.91Zm5.95-34.27l-2.85,.82c.79,.14,1.49,.37,2.09,.68s1.28,.82,2.04,1.51l-1.28-3.01Z" style="fill:#404040; stroke:#404040; stroke-miterlimit:10; stroke-width:.61px;"/><path d="M435.15,519.26c.48-1.38,.99-2.55,1.52-3.51s1.1-1.7,1.7-2.21,1.31-.89,2.12-1.12c1-.29,2-.27,3.03,.04,1.02,.32,1.9,.89,2.63,1.71,.83,.91,1.51,2.28,2.04,4.1l2.26,7.81c.38,1.3,.8,2.18,1.28,2.64s1.19,.65,2.14,.58l.18,.64-8.63,2.5-.18-.64c.84-.45,1.34-.99,1.5-1.63s.06-1.61-.32-2.91l-2.3-7.95c-.49-1.71-.93-2.87-1.3-3.47-.41-.66-.88-1.13-1.43-1.41-.55-.27-1.12-.33-1.73-.15-.84,.24-1.56,.82-2.15,1.72-.6,.9-1.27,2.41-2,4.53l2.64,9.12c.38,1.3,.8,2.18,1.28,2.64s1.19,.65,2.14,.58l.18,.64-8.63,2.5-.18-.64c.84-.45,1.34-.99,1.51-1.62s.07-1.61-.32-2.93l-6.57-22.72c-.38-1.32-.82-2.21-1.31-2.67-.5-.46-1.2-.64-2.13-.54l-.15-.52,6.08-2.7,5.1,17.59Zm-.36,15.11l3.93-1.14-.59-.29s-.07-.04-.1-.05l-.32-.16c-.25-.17-.43-.44-.55-.81l-.14-.47-8.21-28.39-3.1,1.36,.96,.44s.05,.01,.1,.05l.32,.16c.16,.07,.29,.21,.39,.41s.23,.57,.38,1.1l7.28,25.17c.19,.64,.27,1.05,.27,1.22-.01,.17-.1,.43-.29,.77-.03,.04-.04,.07-.04,.09l-.29,.54Zm12.3-3.56l3.91-1.13-.57-.29s-.09-.05-.1-.05l-.32-.16c-.26-.18-.45-.45-.55-.81l-.14-.47-.09-.23-2.6-8.98c-.34-1.19-.68-2.11-1.01-2.76-.33-.65-.73-1.19-1.19-1.62-1.19-1.08-2.44-1.44-3.73-1.06-.13,.04-.42,.16-.88,.36,.85-.09,1.56,.01,2.14,.31,.57,.3,1.07,.86,1.51,1.66,.44,.81,.88,1.97,1.32,3.49l2.64,9.12c.19,.64,.28,1.05,.28,1.22s-.09,.43-.28,.77c-.02,.04-.03,.06-.04,.06s-.01,.01-.02,.03l-.28,.54Z" style="fill:#404040; stroke:#404040; stroke-miterlimit:10; stroke-width:.61px;"/><path d="M457,517.19l.15,.52c.54,1.87,1.24,3.43,2.11,4.71,.86,1.27,1.83,2.17,2.9,2.69s2.17,.62,3.31,.29c.6-.17,1.17-.47,1.71-.89,.54-.42,1.04-.94,1.51-1.57,.46-.63,.95-1.46,1.46-2.51l.58,.52c-.9,1.96-1.85,3.45-2.87,4.47-1.02,1.02-2.27,1.75-3.77,2.19-1.56,.45-3.08,.45-4.55-.01s-2.77-1.33-3.88-2.62c-1.11-1.29-1.94-2.87-2.48-4.74-.57-1.96-.71-3.86-.43-5.71,.28-1.85,.94-3.42,1.98-4.73s2.36-2.19,3.97-2.65c1.38-.4,2.73-.42,4.08-.08,1.34,.34,2.51,1.03,3.51,2.07,1.04,1.06,1.9,2.6,2.58,4.63l-11.87,3.42Zm7.72,9.47c-.97,.13-1.78,.13-2.42,.01s-1.32-.4-2.03-.84c-1.05-.65-2.01-1.62-2.87-2.93s-1.54-2.81-2.03-4.5c-.34-1.18-.56-2.29-.65-3.33-.1-1.04-.06-2.01,.12-2.91s.5-1.8,.98-2.7c-1.21,1.4-1.99,3.02-2.32,4.85s-.22,3.73,.35,5.71c.49,1.69,1.26,3.14,2.3,4.34,1.04,1.2,2.25,2.03,3.62,2.48,1.37,.45,2.75,.48,4.14,.08,.3-.09,.58-.18,.81-.26Zm-7.96-10.29l7.84-2.27c-.63-2.11-1.24-3.58-1.85-4.41-.55-.76-1.17-1.29-1.86-1.59-.7-.3-1.39-.35-2.09-.15-2.52,.73-3.2,3.54-2.04,8.42Zm10.22-2.96c-.38-1.15-.86-2.15-1.44-3-.59-.85-1.25-1.52-2-2.01-.75-.49-1.54-.77-2.38-.83,.97,.5,1.76,1.2,2.38,2.09,.62,.89,1.14,2.08,1.58,3.57,.07,.25,.13,.47,.17,.66l1.69-.48Z" style="fill:#404040; stroke:#404040; stroke-miterlimit:10; stroke-width:.61px;"/><path d="M488.69,485.55l4.72,7.84-.59,.17c-2.21-2.64-4.27-4.41-6.18-5.32s-3.91-1.06-6.01-.45c-1.53,.44-2.88,1.25-4.04,2.42s-2.05,2.63-2.68,4.39c-1.16,3.21-1.15,6.84,.02,10.9,.9,3.11,2.21,5.77,3.93,7.99,1.72,2.22,3.67,3.79,5.83,4.71,2.17,.92,4.32,1.07,6.46,.45,1.32-.38,2.43-.99,3.31-1.81s1.41-1.75,1.59-2.77c.17-.95-.02-2.36-.56-4.22l-.23-.8c-.4-1.38-.78-2.39-1.14-3.03-.36-.64-.83-1.15-1.39-1.51-1.06-.66-2.38-.85-3.97-.56l-.21-.73,12.11-3.5,.21,.73c-.97,.59-1.56,1.46-1.79,2.63-.14,.89,.11,2.44,.75,4.65l1.24,4.28,1.82,1.82c-.19,.04-.4,.09-.64,.16-1.01,.29-1.95,.67-2.82,1.15-.87,.47-1.97,1.21-3.28,2.2-1.26,.96-2.36,1.68-3.3,2.17-.95,.49-1.98,.89-3.11,1.22-4.27,1.24-8.03,.78-11.28-1.38-1.78-1.2-3.35-2.76-4.71-4.69s-2.36-4.01-3.01-6.25c-.67-2.32-.93-4.63-.77-6.94,.16-2.3,.68-4.44,1.58-6.4s2.11-3.64,3.65-5.04,3.31-2.4,5.31-2.98c1.14-.33,2.55-.58,4.24-.74,.25-.04,.54-.07,.88-.09s.99-.07,1.95-.14c.5-.03,.91-.08,1.21-.17,.05-.02,.14-.05,.27-.1,.13-.05,.27-.1,.43-.15,.06-.05,.14-.08,.2-.11Zm-2.02,34.83c-1.64-.19-3.02-.48-4.13-.89-1.11-.41-2.24-1.04-3.38-1.88-1.55-1.2-2.91-2.7-4.08-4.5-1.17-1.8-2.07-3.79-2.7-5.97-.54-1.87-.85-3.76-.94-5.67-.08-1.91,.09-3.67,.52-5.27,.44-1.76,1.38-3.71,2.8-5.86-1.56,1.62-2.77,3.39-3.63,5.31-.86,1.91-1.34,3.93-1.44,6.05s.16,4.29,.8,6.5c.79,2.73,2,5.09,3.63,7.08s3.55,3.43,5.74,4.33,4.46,1.15,6.81,.77Zm4.28-17.24l1.46,.7c.56,.26,.93,.5,1.13,.69,.19,.2,.36,.53,.49,1,.05,.16,.09,.3,.13,.42,.04,.12,.08,.24,.11,.35l.12,.4,1.03,3.57c.37,1.27,.54,2.28,.51,3.04s-.26,1.62-.69,2.59c1.07-.97,2.2-1.73,3.41-2.28l-2.18-7.53-.12-.4c-.07-.25-.14-.51-.2-.78-.14-.47-.17-.85-.11-1.15,.06-.3,.25-.68,.57-1.15l.86-1.37-6.52,1.9Z" style="fill:#404040; stroke:#404040; stroke-miterlimit:10; stroke-width:.61px;"/><path d="M507.26,498.2c.25-1.97,.58-3.4,.99-4.27s1.01-1.43,1.81-1.66c1-.29,1.96-.06,2.9,.69s1.61,1.82,2.02,3.21c.26,.89,.3,1.63,.14,2.2-.17,.58-.53,.94-1.1,1.11-.48,.14-.93,.06-1.35-.25-.42-.3-.71-.76-.89-1.37-.08-.28-.14-.6-.17-.97l-.08-.95c-.05-.58-.14-1.08-.26-1.5s-.31-.73-.57-.92-.55-.24-.86-.15c-.37,.11-.68,.38-.93,.82-.26,.44-.48,1.09-.66,1.95s-.37,2.04-.54,3.53l2.63,9.08c.38,1.3,.84,2.17,1.38,2.61,.54,.44,1.36,.6,2.45,.49l.18,.64-9.04,2.61-.18-.64c.84-.45,1.34-.99,1.51-1.62s.07-1.61-.32-2.93l-2.86-9.88c-.38-1.32-.82-2.21-1.31-2.67-.5-.46-1.2-.64-2.13-.54l-.15-.52,6.08-2.7,1.31,4.6Zm-.31,15.3l3.93-1.14-.59-.29s-.07-.04-.1-.05l-.32-.16c-.25-.17-.43-.44-.55-.81l-.14-.47-.07-.24-4.43-15.31-3.1,1.36,.96,.44s.05,.01,.1,.05l.32,.16c.16,.07,.29,.21,.39,.41s.23,.57,.38,1.1l3.56,12.32c.19,.64,.27,1.05,.27,1.22-.01,.17-.1,.43-.29,.77-.03,.04-.04,.07-.04,.09l-.28,.55Zm4.03-20.38c.44,.4,.74,.88,.91,1.44,.14,.49,.24,1.1,.3,1.85,.06,.71,.13,1.18,.19,1.4,.19,.66,.51,.92,.95,.79,.56-.16,.66-.88,.29-2.15-.46-1.61-1.34-2.72-2.64-3.33Z" style="fill:#404040; stroke:#404040; stroke-miterlimit:10; stroke-width:.61px;"/><path d="M529.46,505.74c-1.14,2.1-2.63,3.41-4.48,3.95-1.48,.43-2.8,.31-3.95-.35s-1.94-1.74-2.37-3.23c-.61-2.12-.23-4.03,1.15-5.74s3.67-3.11,6.88-4.21l-.19-.66-.1-.33c-.35-1.22-.69-2.21-1-2.96-.32-.75-.62-1.3-.9-1.64-.33-.4-.71-.68-1.15-.85s-.87-.19-1.29-.07c-.62,.18-1.03,.56-1.25,1.14-.22,.58-.22,1.39-.03,2.42,.18,1.02,.2,1.74,.07,2.16s-.49,.71-1.07,.88c-.45,.13-.87,.05-1.28-.24-.41-.29-.7-.73-.87-1.33-.23-.8-.2-1.6,.1-2.39s.82-1.5,1.57-2.12,1.63-1.09,2.66-1.38c1.32-.38,2.57-.4,3.75-.05s2.17,1.01,2.99,2c.43,.51,.8,1.1,1.12,1.79s.66,1.67,1.03,2.94l1.96,6.77c.38,1.3,.8,2.18,1.28,2.64,.48,.46,1.19,.65,2.14,.58l.18,.64-6.33,1.83-.62-2.19Zm-3.81,3.04c-2.39,.1-3.92-1.04-4.61-3.41-.44-1.54-.31-3,.41-4.4,.32-.62,1.02-1.49,2.12-2.63-1.48,.82-2.57,1.67-3.27,2.55-1.18,1.53-1.5,3.2-.98,5,.38,1.3,1.08,2.24,2.1,2.82,1.03,.58,2.17,.69,3.43,.32,.3-.08,.57-.17,.8-.25Zm-5.37-18.58c-.84,.55-1.44,1.22-1.81,2.02s-.45,1.59-.22,2.37c.09,.3,.21,.52,.38,.66s.35,.18,.55,.12c.18-.05,.3-.16,.35-.32s.05-.45,0-.88c-.11-.92-.11-1.64-.01-2.15,.09-.52,.35-1.12,.76-1.82Zm8.88,14.51l-2.25-7.78c-1.2,.6-2.18,1.31-2.93,2.12s-1.25,1.71-1.49,2.7c-.24,.99-.21,1.99,.08,3.01,.3,1.04,.81,1.82,1.52,2.35,.72,.53,1.47,.69,2.25,.46,.97-.29,1.91-1.24,2.82-2.86Zm1.3,1.99l2.91-.84-.57-.29s-.09-.05-.1-.05l-.32-.16c-.26-.18-.45-.45-.55-.81l-.14-.47-.09-.23-2.31-8c-.63-2.18-1.31-3.75-2.04-4.71-1.01-1.27-2.2-1.93-3.57-1.97,1.04,.46,1.86,1.44,2.45,2.94,.35,.92,.81,2.36,1.38,4.34l2.95,10.25Z" style="fill:#404040; stroke:#404040; stroke-miterlimit:10; stroke-width:.61px;"/><path d="M538.18,505.59l-.18-.64c.84-.45,1.34-.99,1.51-1.62s.07-1.61-.32-2.93l-2.86-9.88c-.38-1.32-.82-2.21-1.31-2.67-.5-.46-1.2-.64-2.13-.54l-.15-.52,6.08-2.7,4.38,15.15c.38,1.3,.8,2.18,1.28,2.64,.48,.46,1.19,.65,2.14,.58l.18,.64-8.62,2.49Zm1.67-1.61l3.93-1.14-.59-.29s-.07-.04-.1-.05l-.32-.16c-.25-.17-.43-.44-.55-.81l-.14-.47-.07-.24-4.43-15.31-3.1,1.36,.96,.44s.05,.01,.1,.05l.32,.16c.16,.07,.29,.21,.39,.41,.1,.2,.23,.57,.38,1.1l3.56,12.32c.19,.64,.27,1.05,.27,1.22-.01,.17-.1,.43-.29,.77-.03,.04-.04,.07-.04,.09l-.28,.55Zm-7.42-24.99c-.23-.78-.2-1.51,.09-2.19,.29-.68,.76-1.11,1.43-1.31,.67-.19,1.3-.08,1.91,.34,.6,.42,1.02,1.02,1.25,1.81,.23,.8,.2,1.53-.09,2.19-.29,.66-.77,1.09-1.44,1.28s-1.3,.09-1.9-.32c-.6-.4-1.02-1-1.25-1.8Zm1.61-2.84c-.45,.17-.78,.51-.99,1.04-.21,.53-.23,1.07-.07,1.64,.16,.56,.48,1.02,.95,1.36,.47,.34,.92,.45,1.37,.32,.29-.08,.38-.3,.28-.67-.07-.29-.23-.86-.48-1.72-.24-.83-.4-1.36-.48-1.59-.11-.32-.3-.44-.58-.38Z" style="fill:#404040; stroke:#404040; stroke-miterlimit:10; stroke-width:.61px;"/><path d="M548.52,502.6l-.18-.64c.84-.45,1.34-.99,1.51-1.62s.07-1.61-.32-2.93l-6.57-22.72c-.38-1.32-.82-2.21-1.31-2.67-.5-.46-1.2-.64-2.13-.54l-.15-.52,6.08-2.7,8.1,27.99c.38,1.3,.8,2.18,1.28,2.64,.48,.46,1.19,.65,2.14,.58l.18,.64-8.63,2.49Zm1.67-1.61l3.93-1.14-.59-.29s-.07-.04-.1-.05l-.32-.16c-.25-.17-.43-.44-.55-.81l-.14-.47-.07-.24-8.14-28.15-3.1,1.36,.96,.44s.05,.01,.1,.05l.32,.16c.16,.07,.29,.21,.39,.41s.23,.57,.38,1.1l7.28,25.17c.19,.64,.27,1.05,.27,1.22-.01,.17-.1,.43-.29,.77-.03,.04-.04,.07-.04,.09l-.29,.54Z" style="fill:#404040; stroke:#404040; stroke-miterlimit:10; stroke-width:.61px;"/><path d="M565.76,463.61l3.41,7.5-.67,.19c-.76-1.31-1.43-2.32-2.01-3.04s-1.15-1.29-1.73-1.72c-.93-.7-1.93-1.17-3.01-1.4-1.08-.23-2.13-.2-3.16,.1-1.44,.42-2.48,1.23-3.13,2.42-.65,1.2-.76,2.53-.33,4.01,.47,1.62,1.45,2.78,2.95,3.5,.77,.36,1.57,.64,2.39,.85s2.09,.48,3.8,.8c1.16,.19,2.15,.38,2.97,.57,.82,.19,1.49,.37,2.02,.56,.52,.19,1.06,.42,1.61,.71,2.33,1.23,3.9,3.26,4.72,6.1,.54,1.87,.6,3.67,.19,5.42-.42,1.75-1.26,3.27-2.51,4.56-1.26,1.29-2.81,2.2-4.64,2.73-1.27,.37-2.8,.56-4.6,.59-1.06,0-2.5-.13-4.31-.39l-.62-.08-3.17-8.74,.59-.17c1.27,2.23,2.82,4.1,4.65,5.61,2.4,1.97,4.77,2.62,7.1,1.95,1.19-.34,2.17-.92,2.94-1.73s1.28-1.76,1.53-2.86c.25-1.1,.2-2.26-.16-3.48-.31-1.08-.8-2-1.46-2.75-.66-.75-1.56-1.38-2.7-1.9-1.14-.51-2.63-.94-4.46-1.3-2.67-.54-4.3-.9-4.89-1.08-1.14-.37-2.14-.83-2.98-1.4s-1.55-1.25-2.1-2.04c-.56-.79-.98-1.69-1.27-2.69-.45-1.55-.52-3.07-.2-4.56,.32-1.48,.97-2.77,1.95-3.85,.99-1.08,2.21-1.84,3.66-2.26,.92-.27,1.99-.38,3.22-.35l1.29,.04c.96,.03,1.94-.1,2.93-.39l.19-.03Zm-6.36,32.71c1.04,.35,2.3,.6,3.8,.76-1.15-.69-2.04-1.27-2.67-1.75s-1.39-1.19-2.29-2.14l1.16,3.13Zm13.37-2.88c1.62-2.49,2.05-5.05,1.3-7.66-.3-1.03-.77-1.99-1.41-2.87-.64-.88-1.4-1.56-2.27-2.06-1.27-.77-3.31-1.41-6.12-1.93-2.33-.45-3.85-.76-4.57-.95-.71-.18-1.47-.49-2.28-.92-1.67-.87-2.79-2.27-3.34-4.18-.16-.57-.26-1.09-.29-1.59-.03-.49,0-.99,.08-1.48,.09-.49,.27-1.17,.54-2.03-1.41,2.16-1.76,4.44-1.06,6.86,.67,2.32,1.96,3.94,3.87,4.84,1.01,.49,2.11,.87,3.31,1.13,.15,.04,1.32,.28,3.49,.72,2.62,.52,4.5,1.13,5.64,1.83,1.82,1.12,3.02,2.72,3.62,4.79,.29,1,.39,1.94,.31,2.8-.07,.89-.35,1.78-.82,2.7Z" style="fill:#404040; stroke:#404040; stroke-miterlimit:10; stroke-width:.61px;"/><path d="M593.39,484.47l.64,.53c-.53,1.41-1.06,2.55-1.6,3.43-.53,.88-1.13,1.57-1.8,2.06-.67,.5-1.48,.89-2.45,1.17-1.53,.44-3.02,.44-4.45,0s-2.7-1.29-3.8-2.54-1.91-2.77-2.43-4.56c-.42-1.46-.6-2.93-.53-4.41,.07-1.48,.36-2.83,.87-4.05s1.24-2.27,2.19-3.14c.95-.88,2.02-1.49,3.23-1.84,1.11-.32,2.23-.38,3.34-.16,1.11,.21,2.07,.65,2.88,1.32s1.36,1.49,1.64,2.48c.19,.64,.18,1.23-.01,1.77-.19,.54-.53,.88-1.01,1.02-.71,.2-1.36-.05-1.95-.76-.26-.32-.59-.99-.99-2.03-.41-1.02-.8-1.72-1.16-2.11-.33-.36-.73-.61-1.19-.74s-.94-.12-1.44,.02c-.9,.26-1.59,.87-2.07,1.82s-.71,2.16-.69,3.61c.02,1.46,.28,3.08,.8,4.87,.51,1.77,1.19,3.29,2.02,4.55,.83,1.26,1.75,2.15,2.74,2.67,.99,.52,2.01,.63,3.04,.33,.59-.17,1.12-.47,1.6-.88,.48-.42,.93-1,1.36-1.74,.44-.75,.84-1.64,1.22-2.69Zm-5.47,6.58c-3.9-.08-6.61-2.74-8.13-8-.57-1.98-.81-3.69-.71-5.15s.57-2.97,1.42-4.54c-2.77,3.04-3.54,6.69-2.31,10.94,.48,1.66,1.22,3.08,2.23,4.24,1,1.16,2.16,1.97,3.48,2.41,1.32,.44,2.66,.48,4.02,.1Zm-1.95-19.27c.55,.49,.94,.91,1.17,1.28s.53,1.02,.92,1.96c.34,.8,.62,1.31,.81,1.52,.2,.22,.43,.28,.71,.2,.43-.13,.54-.56,.32-1.32-.45-1.54-1.76-2.75-3.93-3.64Z" style="fill:#404040; stroke:#404040; stroke-miterlimit:10; stroke-width:.61px;"/><path d="M606.47,483.46c-1.14,2.1-2.63,3.41-4.48,3.95-1.48,.43-2.8,.31-3.95-.35s-1.94-1.74-2.37-3.23c-.61-2.12-.23-4.03,1.15-5.74s3.67-3.11,6.88-4.21l-.19-.66-.1-.33c-.35-1.22-.69-2.21-1.01-2.96s-.62-1.3-.9-1.64c-.33-.4-.71-.68-1.15-.85s-.87-.19-1.29-.07c-.62,.18-1.03,.56-1.25,1.14-.22,.58-.22,1.39-.03,2.42,.18,1.02,.2,1.74,.07,2.16s-.49,.71-1.07,.88c-.45,.13-.87,.05-1.28-.24-.41-.29-.7-.73-.87-1.33-.23-.8-.2-1.6,.1-2.39s.82-1.5,1.57-2.12,1.64-1.09,2.66-1.38c1.32-.38,2.57-.4,3.75-.05s2.17,1.01,2.99,2c.43,.51,.8,1.1,1.12,1.79s.66,1.67,1.03,2.94l1.96,6.77c.38,1.3,.8,2.18,1.28,2.64,.48,.46,1.19,.65,2.14,.58l.18,.64-6.33,1.83-.61-2.19Zm-3.8,3.04c-2.39,.1-3.92-1.04-4.61-3.41-.44-1.54-.31-3,.41-4.4,.32-.62,1.02-1.49,2.12-2.63-1.48,.82-2.57,1.67-3.27,2.55-1.18,1.53-1.5,3.2-.98,5,.38,1.3,1.08,2.24,2.1,2.82,1.03,.58,2.17,.69,3.43,.32,.3-.08,.57-.16,.8-.25Zm-5.38-18.58c-.84,.55-1.44,1.22-1.81,2.02s-.45,1.59-.22,2.37c.09,.3,.21,.52,.38,.65,.17,.14,.35,.18,.55,.12,.18-.05,.3-.16,.35-.32s.05-.45,0-.88c-.11-.92-.11-1.64-.02-2.15,.11-.51,.36-1.11,.77-1.81Zm8.88,14.51l-2.25-7.78c-1.2,.6-2.18,1.31-2.93,2.12s-1.25,1.71-1.49,2.7c-.24,.99-.21,1.99,.08,3.01,.3,1.04,.81,1.82,1.52,2.35,.72,.53,1.47,.69,2.25,.46,.98-.29,1.91-1.24,2.82-2.86Zm1.3,1.99l2.91-.84-.57-.29s-.09-.05-.1-.05l-.32-.16c-.26-.18-.45-.45-.55-.81l-.14-.47-.09-.23-2.31-8c-.63-2.18-1.31-3.75-2.04-4.71-1.01-1.27-2.2-1.93-3.57-1.97,1.04,.46,1.86,1.44,2.45,2.94,.35,.92,.81,2.36,1.38,4.34l2.95,10.25Z" style="fill:#404040; stroke:#404040; stroke-miterlimit:10; stroke-width:.61px;"/><path d="M615.2,483.31l-.18-.64c.84-.45,1.34-.99,1.51-1.62s.07-1.61-.32-2.93l-6.57-22.72c-.38-1.32-.82-2.21-1.31-2.67-.5-.46-1.2-.64-2.13-.54l-.15-.52,6.08-2.7,8.1,27.99c.38,1.3,.8,2.18,1.28,2.64,.48,.46,1.19,.65,2.14,.58l.18,.64-8.63,2.49Zm1.67-1.6l3.93-1.14-.59-.29s-.07-.04-.1-.05l-.32-.16c-.25-.17-.43-.44-.55-.81l-.14-.47-.07-.24-8.14-28.15-3.1,1.36,.96,.44s.05,.01,.1,.05l.32,.16c.16,.07,.29,.21,.4,.41,.1,.2,.23,.57,.38,1.1l7.28,25.17c.19,.64,.28,1.05,.27,1.22s-.1,.43-.29,.77c-.03,.04-.04,.07-.04,.09l-.3,.54Z" style="fill:#404040; stroke:#404040; stroke-miterlimit:10; stroke-width:.61px;"/><path d="M626.87,468.06l.15,.52c.54,1.87,1.24,3.43,2.11,4.71,.86,1.27,1.83,2.17,2.9,2.69s2.17,.62,3.31,.29c.6-.17,1.17-.47,1.71-.89,.54-.42,1.04-.94,1.5-1.57,.47-.63,.95-1.46,1.46-2.51l.58,.52c-.9,1.96-1.85,3.45-2.87,4.47s-2.27,1.75-3.77,2.19c-1.56,.45-3.08,.45-4.55-.01s-2.77-1.33-3.88-2.62-1.94-2.87-2.48-4.74c-.57-1.96-.71-3.86-.43-5.71s.94-3.42,1.98-4.73c1.04-1.3,2.36-2.19,3.97-2.65,1.37-.4,2.73-.42,4.08-.08,1.34,.34,2.51,1.03,3.51,2.07,1.04,1.06,1.9,2.6,2.57,4.63l-11.85,3.42Zm7.72,9.46c-.97,.13-1.78,.13-2.42,.01-.65-.12-1.32-.4-2.03-.84-1.05-.65-2.01-1.62-2.87-2.93s-1.54-2.81-2.03-4.5c-.34-1.18-.56-2.29-.65-3.33-.1-1.04-.06-2.01,.12-2.91,.17-.9,.5-1.8,.98-2.7-1.21,1.4-1.99,3.02-2.32,4.85-.34,1.83-.22,3.73,.35,5.71,.49,1.69,1.26,3.14,2.3,4.34,1.04,1.2,2.25,2.03,3.62,2.48s2.75,.48,4.14,.08c.31-.08,.58-.17,.81-.26Zm-7.96-10.28l7.84-2.27c-.62-2.11-1.24-3.58-1.85-4.41-.55-.76-1.17-1.29-1.86-1.59-.7-.3-1.39-.35-2.09-.15-2.52,.73-3.2,3.53-2.04,8.42Zm10.22-2.96c-.38-1.15-.86-2.15-1.44-3-.59-.85-1.25-1.52-2-2.01-.75-.49-1.54-.77-2.38-.83,.97,.5,1.76,1.2,2.38,2.09,.62,.89,1.14,2.08,1.58,3.57,.07,.25,.13,.47,.17,.66l1.69-.48Z" style="fill:#404040; stroke:#404040; stroke-miterlimit:10; stroke-width:.61px;"/><path d="M644.06,472.11c-.16-.56-.2-1.11-.11-1.63,.09-.52,.29-.97,.59-1.34,.3-.38,.69-.63,1.16-.77,.47-.14,.94-.13,1.39,.03,.46,.16,.86,.43,1.22,.82,.35,.39,.61,.87,.78,1.43,.16,.56,.2,1.11,.11,1.63s-.29,.97-.59,1.34c-.3,.38-.69,.63-1.16,.77-.47,.14-.94,.13-1.39-.03s-.86-.43-1.22-.82c-.36-.39-.62-.87-.78-1.43Zm3.37,.91l-1.01-3.48c-.11-.39-.33-.54-.64-.45-.46,.13-.8,.49-1.01,1.06-.22,.57-.24,1.16-.06,1.78,.18,.61,.51,1.1,1.01,1.47s.97,.48,1.41,.36c.31-.11,.41-.35,.3-.74Z" style="fill:#404040; stroke:#404040; stroke-miterlimit:10; stroke-width:.61px;"/><path d="M654.01,460.21l.15,.52c.54,1.87,1.24,3.43,2.11,4.71,.86,1.27,1.83,2.17,2.9,2.69s2.17,.62,3.31,.29c.6-.17,1.17-.47,1.71-.89,.54-.42,1.04-.94,1.5-1.57,.47-.63,.95-1.46,1.46-2.51l.58,.52c-.9,1.96-1.85,3.45-2.87,4.47s-2.27,1.75-3.77,2.19c-1.56,.45-3.08,.45-4.55-.01-1.47-.46-2.77-1.33-3.88-2.62s-1.94-2.87-2.48-4.74c-.57-1.96-.71-3.86-.43-5.71s.94-3.42,1.98-4.73,2.36-2.19,3.97-2.65c1.37-.4,2.73-.42,4.08-.08,1.34,.34,2.51,1.03,3.51,2.07,1.04,1.06,1.9,2.6,2.57,4.63l-11.85,3.42Zm7.72,9.46c-.97,.13-1.78,.13-2.42,.01-.65-.12-1.32-.4-2.03-.84-1.05-.65-2.01-1.62-2.87-2.93s-1.54-2.81-2.03-4.5c-.34-1.18-.56-2.29-.65-3.33-.1-1.04-.06-2.01,.12-2.91,.17-.9,.5-1.8,.98-2.7-1.21,1.4-1.99,3.02-2.32,4.85-.34,1.83-.22,3.73,.35,5.71,.49,1.69,1.26,3.14,2.3,4.34,1.04,1.2,2.25,2.03,3.62,2.48s2.75,.48,4.14,.08c.31-.08,.58-.17,.81-.26Zm-7.96-10.28l7.84-2.27c-.62-2.11-1.24-3.58-1.85-4.41-.55-.76-1.17-1.29-1.86-1.59-.7-.3-1.39-.35-2.09-.15-2.52,.73-3.2,3.53-2.04,8.42Zm10.22-2.96c-.38-1.15-.86-2.15-1.44-3-.59-.85-1.25-1.52-2-2.01-.75-.49-1.54-.77-2.38-.83,.97,.5,1.76,1.2,2.38,2.09,.62,.89,1.14,2.08,1.58,3.57,.07,.25,.13,.47,.17,.66l1.69-.48Z" style="fill:#404040; stroke:#404040; stroke-miterlimit:10; stroke-width:.61px;"/><path d="M670.93,447.08l3.61,12.47c.35,1.22,.7,2.19,1.04,2.9,.34,.71,.69,1.2,1.06,1.46,.37,.27,.77,.34,1.22,.21,.8-.23,1.62-1.08,2.46-2.55l.46,.48c-.61,1.16-1.22,2.05-1.83,2.67-.6,.62-1.28,1.03-2.04,1.25-1.47,.42-2.75,.16-3.86-.78-1.1-.95-1.98-2.53-2.62-4.76l-3.54-12.25-1.81,.52-.16-.56c.94-.44,1.67-1.11,2.21-2.01,.53-.9,.85-2.03,.95-3.37,.1-1.34-.01-2.93-.32-4.76l.49-.14,2.47,8.54,4.3-1.24,.2,.71-4.29,1.21Zm-2.43-2.58c-.2,1.04-.59,1.93-1.19,2.66l3.47,11.99,.16,.54c.26,.89,.52,1.67,.78,2.34,.26,.66,.52,1.18,.78,1.55s.58,.71,.97,1.02c1.03,.81,2.13,1.04,3.29,.7,.21-.06,.39-.12,.54-.18-.62,.01-1.13-.06-1.52-.22s-.75-.45-1.07-.88-.64-1.04-.96-1.85-.66-1.82-1.01-3.05l-.19-.66-4.05-13.96Z" style="fill:#404040; stroke:#404040; stroke-miterlimit:10; stroke-width:.61px;"/><path d="M684.16,447.23c.48-1.38,.99-2.55,1.52-3.51s1.1-1.7,1.7-2.21c.6-.51,1.31-.89,2.12-1.12,1-.29,2-.27,3.03,.04,1.02,.32,1.9,.89,2.64,1.71,.83,.92,1.51,2.28,2.04,4.1l2.26,7.81c.38,1.3,.8,2.18,1.28,2.64,.48,.46,1.19,.65,2.14,.58l.18,.64-8.63,2.5-.18-.64c.84-.44,1.33-.99,1.5-1.63,.16-.64,.06-1.61-.32-2.91l-2.3-7.95c-.49-1.71-.93-2.87-1.3-3.47-.41-.66-.88-1.13-1.43-1.41-.55-.27-1.12-.33-1.73-.15-.84,.24-1.56,.82-2.15,1.72s-1.27,2.41-2,4.53l2.64,9.12c.38,1.3,.8,2.18,1.28,2.64,.48,.46,1.19,.65,2.14,.58l.18,.64-8.63,2.5-.18-.64c.84-.45,1.34-.99,1.51-1.62s.07-1.61-.32-2.93l-6.57-22.72c-.38-1.32-.82-2.21-1.31-2.67-.5-.46-1.2-.64-2.13-.54l-.15-.52,6.08-2.7,5.09,17.59Zm-.36,15.12l3.93-1.14-.59-.29s-.07-.04-.1-.05l-.32-.16c-.25-.17-.43-.44-.55-.81l-.14-.47-8.21-28.39-3.1,1.36,.96,.44s.05,.01,.1,.05l.32,.16c.16,.07,.29,.21,.39,.41,.1,.2,.23,.57,.38,1.1l7.28,25.17c.19,.64,.27,1.05,.27,1.22-.01,.17-.1,.43-.29,.77-.03,.04-.04,.07-.04,.09l-.29,.54Zm12.3-3.56l3.91-1.13-.57-.29s-.09-.05-.1-.05l-.32-.16c-.26-.18-.45-.45-.55-.81l-.14-.47-.09-.23-2.6-8.98c-.34-1.19-.68-2.11-1.01-2.76-.33-.65-.73-1.19-1.19-1.62-1.19-1.08-2.44-1.44-3.73-1.06-.13,.04-.42,.16-.88,.36,.85-.09,1.57,.01,2.14,.31s1.08,.86,1.51,1.66c.44,.81,.88,1.97,1.32,3.49l2.64,9.12c.19,.64,.28,1.05,.28,1.22s-.09,.43-.28,.77c-.02,.04-.03,.06-.04,.06s-.01,.01-.02,.03l-.28,.54Z" style="fill:#404040; stroke:#404040; stroke-miterlimit:10; stroke-width:.61px;"/><path d="M201.64,312.42c-.4,253.11,177.84,507.96,334.31,640.85-34.36,5.75-222.4-115.47-292.23-180.98-62.43-58.57-127.05-150.73-129.75-236.29-4.31-136.01,82.39-220.75,87.67-223.58Z" style="fill:url(#g); stroke:#292929; stroke-dasharray:0 0 0 0 0 0 0 0 0 0 0 0; stroke-miterlimit:10; stroke-width:3px;"/><path d="M231.86,347.58c30.48,219.77,143.81,422.45,317.26,560.81-4.82,12.85-8.35,32.04-13.17,44.89-211.82-182.52-330.64-407.09-334.31-640.86,4.36,3.53,21.31,22.75,30.22,35.16Z" style="fill:#292929; stroke:#292929; stroke-dasharray:0 0 0 0 0 0 0 0 0 0 0 0; stroke-miterlimit:10; stroke-width:3px;"/><path d="M218.49,699.93c-2.19-1.39-4.36-2.83-6.53-4.29l-6.25-4.72c-2.02-1.65-4.01-3.35-6.01-5.04l-5.76-5.33c-7.53-7.28-14.48-15.15-20.96-23.4-12.91-16.52-23.95-34.58-32.28-54.05l-1.54-3.66c-.49-1.23-.93-2.49-1.4-3.73l-1.39-3.73c-.45-1.25-.83-2.53-1.24-3.8l-1.19-3.81c-.38-1.28-.69-2.58-1.03-3.87l-1.01-3.87-.81-3.92c-2.12-10.47-3.05-21.2-2.63-31.81,.41-10.61,1.96-21.06,4.2-31.26,1.12-5.1,2.41-10.15,3.82-15.16l2.19-7.48c.79-2.48,1.55-4.96,2.38-7.43-2.39,20.64-5.45,41.14-4.72,61.33,.36,10.08,1.7,20.04,4.03,29.77l.87,3.65,1.04,3.61c.35,1.2,.67,2.41,1.05,3.6l1.21,3.56c.41,1.19,.76,2.39,1.2,3.57l1.35,3.53c.45,1.17,.88,2.35,1.35,3.52l1.49,3.48c7.94,18.58,18.02,36.42,29.42,53.35,5.7,8.48,11.75,16.73,18.21,24.69,6.44,7.98,13.37,15.57,20.94,22.7Z" style="fill:#fff; opacity:.5;"/><path d="M276.01,501.26c7.9,4.7,30.39,4.64,45.44,5.45,8.57-120.29,50.14-228.81,152.74-373.47,1.01-1.42,5.39-28.3-1.55-72.71-51.07,66-97.94,133.48-135.22,208.14s-59.67,160.31-61.41,232.59Z" style="fill:#c7c7c7;"/><path d="M236.91,261.21c14.85-56.89,208.41-195,235.74-200.69-48.84,66.31-97.14,129.93-133.05,204.05s-59.85,154.41-63.58,236.68c-1.24-4.32-59.86-160.51-39.11-240.04Z" style="fill:url(#h);"/><path d="M256.84,363.85c-6.43-16.18-10.6-33.26-13.07-50.58-1.23-8.67-1.99-17.41-2.32-26.17-.19-4.38-.19-8.77-.16-13.15,0-2.19,.12-4.38,.18-6.58l.03-.82,.06-.92c.03-.62,.09-1.24,.16-1.86,.13-1.23,.34-2.46,.6-3.67,1.06-4.85,3.07-9.47,5.85-13.54,.7-1.01,1.44-2,2.23-2.94,.4-.47,.79-.94,1.21-1.39,.42-.45,.85-.92,1.21-1.28,1.54-1.55,3.04-3.13,4.61-4.64,6.22-6.11,12.62-12.04,19.29-17.66,13.3-11.26,27.4-21.58,42.49-30.26-12.58,12.02-25.08,23.83-37.15,36.04-6.04,6.09-11.99,12.26-17.83,18.51l-4.37,4.7c-.39,.41-.68,.75-.99,1.1-.32,.34-.6,.72-.89,1.08-.58,.73-1.12,1.49-1.62,2.26-2.06,3.09-3.51,6.55-4.27,10.15-.2,.9-.36,1.8-.47,2.71-.06,.45-.11,.91-.13,1.37l-.05,.7-.03,.8c-.08,2.12-.19,4.25-.25,6.37-.16,4.25-.21,8.51-.23,12.76-.03,8.51,.2,17.04,.66,25.57,.88,17.07,2.83,34.11,5.25,51.34Z" style="fill:#fff;"/><path d="M276.01,501.26c7.9,4.7,30.39,4.64,45.44,5.45,8.57-120.29,50.14-228.81,152.74-373.47,1.01-1.42,5.39-28.3-1.55-72.71-51.07,66-97.94,133.48-135.22,208.14s-59.67,160.31-61.41,232.59Z" style="fill:#292929; stroke:#292929; stroke-dasharray:0 0 0 0 0 0 0 0 0 0 0 0; stroke-miterlimit:10; stroke-width:3px;"/><path d="M236.91,261.21c14.85-56.89,208.41-195,235.74-200.69-48.84,66.31-97.14,129.93-133.05,204.05s-59.85,154.41-63.58,236.68c-1.24-4.32-59.86-160.51-39.11-240.04Z" style="fill:url(#i); stroke:#292929; stroke-dasharray:0 0 0 0 0 0 0 0 0 0 0 0; stroke-miterlimit:10; stroke-width:3px;"/><path d="M256.84,363.85c-6.43-16.18-10.6-33.26-13.07-50.58-1.23-8.67-1.99-17.41-2.32-26.17-.19-4.38-.19-8.77-.16-13.15,0-2.19,.12-4.38,.18-6.58l.03-.82,.06-.92c.03-.62,.09-1.24,.16-1.86,.13-1.23,.34-2.46,.6-3.67,1.06-4.85,3.07-9.47,5.85-13.54,.7-1.01,1.44-2,2.23-2.94,.4-.47,.79-.94,1.21-1.39,.42-.45,.85-.92,1.21-1.28,1.54-1.55,3.04-3.13,4.61-4.64,6.22-6.11,12.62-12.04,19.29-17.66,13.3-11.26,27.4-21.58,42.49-30.26-12.58,12.02-25.08,23.83-37.15,36.04-6.04,6.09-11.99,12.26-17.83,18.51l-4.37,4.7c-.39,.41-.68,.75-.99,1.1-.32,.34-.6,.72-.89,1.08-.58,.73-1.12,1.49-1.62,2.26-2.06,3.09-3.51,6.55-4.27,10.15-.2,.9-.36,1.8-.47,2.71-.06,.45-.11,.91-.13,1.37l-.05,.7-.03,.8c-.08,2.12-.19,4.25-.25,6.37-.16,4.25-.21,8.51-.23,12.76-.03,8.51,.2,17.04,.66,25.57,.88,17.07,2.83,34.11,5.25,51.34Z" style="fill:#fff; opacity:.5;"/><rect width="1080" height="1080" style="fill:none;"/><path d="M879.27,704.02c.4-253.11-158.56-497.57-334.31-640.85,78.6,18.85,222.4,115.47,292.23,180.98,62.43,58.57,127.05,150.73,129.75,236.29,4.31,136.01-82.39,220.76-87.67,223.58Z" style="fill:none;"/><path d="M849.04,668.87c-30.48-219.77-143.81-422.45-317.26-560.81,4.82-12.85,8.35-32.04,13.17-44.89,200.3,161.47,331.39,405.83,334.32,640.85-4.37-3.52-21.32-22.74-30.23-35.15Z" style="fill:none;"/><path d="M843.38,770.42c-14.85,56.89-208.41,195-235.74,200.69,48.84-66.31,95.01-132.77,130.93-206.88s60.98-154.42,64.71-236.69c1.23,4.32,60.85,163.35,40.1,242.88Z" style="fill:none;"/><path d="M803.28,527.53c-7.9-4.7-30.39-4.64-45.44-5.45-8.57,120.29-50.14,228.82-152.74,373.47-1.01,1.42-4.4,31.15,2.54,75.56,51.07-66,96.95-136.33,134.23-210.98s59.68-160.32,61.41-232.6Z" style="fill:none;"/><path d="M201.64,312.42c-.4,253.11,177.84,507.96,334.31,640.85-34.36,5.75-222.4-115.47-292.23-180.98-62.43-58.57-127.05-150.73-129.75-236.29-4.31-136.01,82.39-220.75,87.67-223.58Z" style="fill:none;"/><path d="M231.86,347.58c30.48,219.77,143.81,422.45,317.26,560.81-4.82,12.85-8.35,32.04-13.17,44.89-211.82-182.52-330.64-407.09-334.31-640.86,4.36,3.53,21.31,22.75,30.22,35.16Z" style="fill:none;"/><path d="M276.01,501.26c7.9,4.7,30.39,4.64,45.44,5.45,8.57-120.29,50.14-228.81,152.74-373.47,1.01-1.42,5.39-28.3-1.55-72.71-51.07,66-97.94,133.48-135.22,208.14s-59.67,160.31-61.41,232.59Z" style="fill:none;"/><path d="M236.91,261.21c14.85-56.89,208.41-195,235.74-200.69-48.84,66.31-97.14,129.93-133.05,204.05s-59.85,154.41-63.58,236.68c-1.24-4.32-59.86-160.51-39.11-240.04Z" style="fill:none;"/></svg>